<mxfile host="app.diagrams.net" modified="2023-05-17T18:21:12.268Z" agent="Mozilla/5.0 (Macintosh; Intel Mac OS X 10_15_7) AppleWebKit/537.36 (KHTML, like Gecko) Chrome/113.0.0.0 Safari/537.36" version="21.2.9" etag="p9f5z7mIpGQr2PujU_S1" type="github">
  <diagram name="Page-1" id="oGIqcCycGXRt2dxVr-CF">
    <mxGraphModel>
      <root>
        <mxCell id="0" />
        <mxCell id="1" parent="0" />
      </root>
    </mxGraphModel>
  </diagram>
</mxfile>
